<?xml version="1.0" encoding="UTF-8" standalone="no"?>
<!DOCTYPE svg PUBLIC "-//W3C//DTD SVG 1.1//EN" "http://www.w3.org/Graphics/SVG/1.1/DTD/svg11.dtd">
<!-- Created with Vectornator (http://vectornator.io/) -->
<svg height="100%" stroke-miterlimit="10" style="fill-rule:nonzero;clip-rule:evenodd;stroke-linecap:round;stroke-linejoin:round;" version="1.1" viewBox="0 0 512 512" width="100%" xml:space="preserve" xmlns="http://www.w3.org/2000/svg" xmlns:xlink="http://www.w3.org/1999/xlink">
<defs>
<linearGradient gradientTransform="matrix(381.578 61.8557 -61.8557 381.578 90.3667 143.21)" gradientUnits="userSpaceOnUse" id="LinearGradient" x1="0" x2="1" y1="0" y2="0">
<stop offset="0" stop-color="#085d80"/>
<stop offset="1" stop-color="#80085d"/>
</linearGradient>
<linearGradient gradientTransform="matrix(558.928 9.6043 -9.6043 558.928 16.3208 258.574)" gradientUnits="userSpaceOnUse" id="LinearGradient_2" x1="0" x2="1" y1="0" y2="0">
<stop offset="0" stop-color="#085d80"/>
<stop offset="1" stop-color="#80085d"/>
</linearGradient>
<linearGradient gradientTransform="matrix(545.805 -9.39216 9.39216 545.805 -0.339917 274.54)" gradientUnits="userSpaceOnUse" id="LinearGradient_3" x1="0" x2="1" y1="0" y2="0">
<stop offset="0" stop-color="#085d80"/>
<stop offset="1" stop-color="#80085d"/>
</linearGradient>
<linearGradient gradientTransform="matrix(299.89 2.84217e-14 -2.84217e-14 299.89 104.648 264.885)" gradientUnits="userSpaceOnUse" id="LinearGradient_4" x1="0" x2="1" y1="0" y2="0">
<stop offset="0" stop-color="#085d80"/>
<stop offset="1" stop-color="#80085d"/>
</linearGradient>
<linearGradient gradientTransform="matrix(291.348 -1.96593 1.96593 291.348 109.095 284.07)" gradientUnits="userSpaceOnUse" id="LinearGradient_5" x1="0" x2="1" y1="0" y2="0">
<stop offset="0" stop-color="#085d80"/>
<stop offset="1" stop-color="#80085d"/>
</linearGradient>
</defs>
<clipPath id="ArtboardFrame">
<rect height="512" width="512" x="0" y="0"/>
</clipPath>
<g clip-path="url(#ArtboardFrame)" id="Слой-1">
<path d="M256 4.5625C204.799 4.5625 153.601 29.918 124.344 80.5937L25.3506 252.052C-33.1655 353.404 39.9785 480.094 157.009 480.094L354.99 480.094C472.021 480.094 545.166 353.404 486.649 252.052L387.656 80.5937C358.399 29.918 307.201 4.5625 256 4.5625ZM256 70.7187C365.279 70.7188 453.875 159.315 453.875 268.594C453.875 377.873 365.279 466.438 256 466.438C146.721 466.437 58.125 377.873 58.125 268.594C58.125 159.315 146.721 70.7187 256 70.7187Z" fill="url(#LinearGradient)" fill-rule="nonzero" opacity="1" stroke="none"/>
<path d="M256 81.5C246.504 81.5 237.006 83.358 228.062 87.0625L148.846 119.874C130.962 127.282 116.752 141.49 109.342 159.373L76.5065 238.615C69.0916 256.51 69.0926 276.618 76.5093 294.512L109.343 373.727C116.754 391.607 130.962 405.812 148.844 413.219L228.065 446.032C245.951 453.441 266.049 453.441 283.935 446.032L363.156 413.219C381.038 405.812 395.246 391.607 402.657 373.727L435.491 294.512C442.907 276.618 442.908 256.51 435.493 238.615L402.658 159.373C395.248 141.49 381.038 127.282 363.154 119.874L283.938 87.0625C274.994 83.358 265.496 81.5 256 81.5ZM256 94.7187C350.903 94.7187 427.844 171.66 427.844 266.562C427.844 361.466 350.903 438.375 256 438.375C161.097 438.375 84.1562 361.465 84.1562 266.562C84.1562 171.659 161.097 94.7187 256 94.7187Z" fill="url(#LinearGradient_2)" fill-rule="nonzero" opacity="1" stroke="none"/>
<path d="M256 100.719C243.397 100.719 230.793 103.98 219.5 110.5L139.101 156.906C116.511 169.945 102.594 194.046 102.594 220.13L102.594 312.97C102.594 339.048 116.505 363.146 139.088 376.187L219.494 422.619C242.083 435.664 269.917 435.664 292.506 422.619L372.912 376.187C395.495 363.145 409.406 339.048 409.406 312.97L409.406 220.13C409.406 194.046 395.489 169.945 372.899 156.906L292.5 110.5C281.207 103.98 268.603 100.719 256 100.719ZM256 119.844C337.03 119.844 402.719 185.533 402.719 266.562C402.719 347.592 337.03 413.281 256 413.281C174.97 413.281 109.281 347.592 109.281 266.562C109.281 185.533 174.97 119.844 256 119.844Z" fill="url(#LinearGradient_3)" fill-rule="nonzero" opacity="1" stroke="none"/>
<path d="M221.99 135.002C195.902 134.955 171.771 148.833 158.693 171.406L125.771 228.227C112.7 250.788 112.654 278.608 125.651 301.212L158.381 358.133C171.384 380.748 195.468 394.705 221.555 394.745L287.219 394.844C313.299 394.889 337.421 381.033 350.5 358.469L383.421 301.644C396.489 279.086 396.536 251.272 383.544 228.67L350.821 171.743C337.823 149.13 313.748 135.17 287.666 135.123L221.99 135.002ZM254.594 141.625C322.684 141.625 377.875 196.847 377.875 264.938C377.875 333.028 322.684 388.219 254.594 388.219C186.503 388.219 131.313 333.028 131.312 264.938C131.312 196.847 186.503 141.625 254.594 141.625Z" fill="url(#LinearGradient_4)" fill-rule="nonzero" opacity="1" stroke="none"/>
<path d="M254.594 151.844C235.367 151.844 216.138 159.175 201.469 173.844L161.876 213.436C132.534 242.779 132.538 290.353 161.886 319.69L201.481 359.271C230.818 388.597 278.37 388.597 307.706 359.271L347.302 319.69C376.649 290.353 376.654 242.779 347.311 213.436L307.719 173.844C293.05 159.175 273.82 151.844 254.594 151.844ZM254.594 175.344C304.965 175.344 345.812 216.192 345.812 266.563C345.812 316.933 304.965 357.75 254.594 357.75C204.223 357.75 163.406 316.933 163.406 266.563C163.406 216.192 204.223 175.344 254.594 175.344Z" fill="url(#LinearGradient_5)" fill-rule="nonzero" opacity="1" stroke="none"/>
</g>
</svg>
